<svg id="visual" viewBox="0 0 960 700" width="960" height="700" xmlns="http://www.w3.org/2000/svg" xmlns:xlink="http://www.w3.org/1999/xlink" version="1.1"><rect x="0" y="0" width="960" height="700" fill="#fff"></rect><path d="M633 700L667.5 680.5C702 661 771 622 770.8 583.2C770.7 544.3 701.3 505.7 665.8 466.8C630.3 428 628.7 389 643.5 350C658.3 311 689.7 272 711.5 233.2C733.3 194.3 745.7 155.7 754.8 116.8C764 78 770 39 773 19.5L776 0L960 0L960 19.5C960 39 960 78 960 116.8C960 155.7 960 194.3 960 233.2C960 272 960 311 960 350C960 389 960 428 960 466.8C960 505.7 960 544.3 960 583.2C960 622 960 661 960 680.5L960 700Z" fill="#7B68EE" stroke-linecap="round" stroke-linejoin="miter"></path></svg>